<svg fill="none" height="48" viewBox="0 0 48 48" width="48" xmlns="http://www.w3.org/2000/svg" xmlns:xlink="http://www.w3.org/1999/xlink"><filter id="a" color-interpolation-filters="sRGB" filterUnits="userSpaceOnUse" height="54" width="48" x="0" y="-3"><feFlood flood-opacity="0" result="BackgroundImageFix"/><feBlend in="SourceGraphic" in2="BackgroundImageFix" mode="normal" result="shape"/><feColorMatrix in="SourceAlpha" result="hardAlpha" type="matrix" values="0 0 0 0 0 0 0 0 0 0 0 0 0 0 0 0 0 0 127 0"/><feOffset dy="-3"/><feGaussianBlur stdDeviation="1.5"/><feComposite in2="hardAlpha" k2="-1" k3="1" operator="arithmetic"/><feColorMatrix type="matrix" values="0 0 0 0 0 0 0 0 0 0 0 0 0 0 0 0 0 0 0.1 0"/><feBlend in2="shape" mode="normal" result="effect1_innerShadow_3051_46981"/><feColorMatrix in="SourceAlpha" result="hardAlpha" type="matrix" values="0 0 0 0 0 0 0 0 0 0 0 0 0 0 0 0 0 0 127 0"/><feOffset dy="3"/><feGaussianBlur stdDeviation="1.5"/><feComposite in2="hardAlpha" k2="-1" k3="1" operator="arithmetic"/><feColorMatrix type="matrix" values="0 0 0 0 1 0 0 0 0 1 0 0 0 0 1 0 0 0 0.1 0"/><feBlend in2="effect1_innerShadow_3051_46981" mode="normal" result="effect2_innerShadow_3051_46981"/><feColorMatrix in="SourceAlpha" result="hardAlpha" type="matrix" values="0 0 0 0 0 0 0 0 0 0 0 0 0 0 0 0 0 0 127 0"/><feMorphology in="SourceAlpha" operator="erode" radius="1" result="effect3_innerShadow_3051_46981"/><feOffset/><feComposite in2="hardAlpha" k2="-1" k3="1" operator="arithmetic"/><feColorMatrix type="matrix" values="0 0 0 0 0.0627451 0 0 0 0 0.0941176 0 0 0 0 0.156863 0 0 0 0.24 0"/><feBlend in2="effect2_innerShadow_3051_46981" mode="normal" result="effect3_innerShadow_3051_46981"/></filter><filter id="b" color-interpolation-filters="sRGB" filterUnits="userSpaceOnUse" height="42" width="39" x="4.5" y="5.25"><feFlood flood-opacity="0" result="BackgroundImageFix"/><feColorMatrix in="SourceAlpha" result="hardAlpha" type="matrix" values="0 0 0 0 0 0 0 0 0 0 0 0 0 0 0 0 0 0 127 0"/><feMorphology in="SourceAlpha" operator="erode" radius="1.5" result="effect1_dropShadow_3051_46981"/><feOffset dy="2.25"/><feGaussianBlur stdDeviation="2.25"/><feComposite in2="hardAlpha" operator="out"/><feColorMatrix type="matrix" values="0 0 0 0 0.141176 0 0 0 0 0.141176 0 0 0 0 0.141176 0 0 0 0.1 0"/><feBlend in2="BackgroundImageFix" mode="normal" result="effect1_dropShadow_3051_46981"/><feBlend in="SourceGraphic" in2="effect1_dropShadow_3051_46981" mode="normal" result="shape"/></filter><linearGradient id="c" gradientUnits="userSpaceOnUse" x1="24" x2="26" y1=".000001" y2="48"><stop offset="0" stop-color="#fff" stop-opacity="0"/><stop offset="1" stop-color="#fff" stop-opacity=".12"/></linearGradient><linearGradient id="d"><stop offset="0" stop-color="#fff" stop-opacity=".8"/><stop offset="1" stop-color="#fff" stop-opacity=".5"/></linearGradient><linearGradient id="e" gradientUnits="userSpaceOnUse" x1="24" x2="24" xlink:href="#d" y1="10.125" y2="22.875"/><linearGradient id="f" gradientUnits="userSpaceOnUse" x1="21.75" x2="21.75" xlink:href="#d" y1="17.625" y2="30.375"/><linearGradient id="g" gradientUnits="userSpaceOnUse" x1="19.5" x2="19.5" xlink:href="#d" y1="25.125" y2="37.875"/><linearGradient id="h" gradientUnits="userSpaceOnUse" x1="24" x2="24" y1="0" y2="48"><stop offset="0" stop-color="#fff" stop-opacity=".12"/><stop offset="1" stop-color="#fff" stop-opacity="0"/></linearGradient><clipPath id="i"><rect height="48" rx="12" width="48"/></clipPath><g filter="url(#a)"><g clip-path="url(#i)"><rect fill="#0c111d" height="48" rx="12" width="48"/><path d="m0 0h48v48h-48z" fill="url(#c)"/><g filter="url(#b)"><path d="m15.3745 18.375h-5.47409c-1.32548 0-2.40041 1.0745-2.40041 2.4v2.1h8.25c2.0711 0 3.75-1.6789 3.75-3.75s1.6789-3.75 3.75-3.75h14.25c1.6569 0 3-1.3431 3-3v-2.25h-16.875c-2.2782 0-4.125 1.8468-4.125 4.125s-1.8473 4.125-4.1255 4.125z" fill="url(#e)"/><path d="m15.3745 25.875h-5.47409c-1.32548 0-2.40041 1.0745-2.40041 2.4v2.1h8.25c2.0711 0 3.75-1.6789 3.75-3.75s1.6789-3.75 3.75-3.75h9.75c1.6569 0 3-1.3431 3-3v-2.25h-12.375c-2.2782 0-4.125 1.8468-4.125 4.125s-1.8473 4.125-4.1255 4.125z" fill="url(#f)" opacity=".7"/><path d="m15.3745 33.375h-5.47409c-1.32548 0-2.40041 1.0745-2.40041 2.4v2.1h8.25c2.0711 0 3.75-1.6789 3.75-3.75s1.6789-3.75 3.75-3.75h5.85c1.3255 0 2.4-1.0745 2.4-2.4v-2.85h-7.875c-2.2782 0-4.125 1.8468-4.125 4.125s-1.8473 4.125-4.1255 4.125z" fill="url(#g)" opacity=".5"/></g></g><rect height="46" rx="11" stroke="url(#h)" stroke-width="2" width="46" x="1" y="1"/></g></svg>